<mxfile host="app.diagrams.net" modified="2022-09-15T02:37:22.425Z" agent="5.0 (Windows)" etag="wmedInLc6bMxJsHy0Mqk" version="20.3.0" type="github">
  <diagram id="sA8RB84CUWAoSrBBRKKT" name="Page-1">
    <mxGraphModel dx="1422" dy="1919" grid="1" gridSize="10" guides="1" tooltips="1" connect="1" arrows="1" fold="1" page="1" pageScale="1" pageWidth="850" pageHeight="1100" math="0" shadow="0">
      <root>
        <mxCell id="0" />
        <mxCell id="1" parent="0" />
        <mxCell id="CH0poKbmw3DAZW8Dyjto-18" value="" style="edgeStyle=orthogonalEdgeStyle;rounded=0;orthogonalLoop=1;jettySize=auto;html=1;" edge="1" parent="1" source="CH0poKbmw3DAZW8Dyjto-1" target="CH0poKbmw3DAZW8Dyjto-17">
          <mxGeometry relative="1" as="geometry" />
        </mxCell>
        <mxCell id="CH0poKbmw3DAZW8Dyjto-1" value="&lt;div&gt;LocalPlayer&lt;/div&gt;&lt;div&gt;&lt;br&gt;&lt;/div&gt;" style="shape=umlActor;verticalLabelPosition=bottom;verticalAlign=top;html=1;outlineConnect=0;" vertex="1" parent="1">
          <mxGeometry x="40" y="120" width="30" height="60" as="geometry" />
        </mxCell>
        <mxCell id="CH0poKbmw3DAZW8Dyjto-3" value="&lt;div&gt;OnlinePlayer&lt;/div&gt;&lt;div&gt;&lt;br&gt;&lt;/div&gt;" style="shape=umlActor;verticalLabelPosition=bottom;verticalAlign=top;html=1;outlineConnect=0;" vertex="1" parent="1">
          <mxGeometry x="750" y="30" width="30" height="60" as="geometry" />
        </mxCell>
        <mxCell id="CH0poKbmw3DAZW8Dyjto-4" style="edgeStyle=orthogonalEdgeStyle;rounded=0;orthogonalLoop=1;jettySize=auto;html=1;dashed=1;exitX=0;exitY=0;exitDx=120;exitDy=50;exitPerimeter=0;" edge="1" parent="1" target="CH0poKbmw3DAZW8Dyjto-8" source="CH0poKbmw3DAZW8Dyjto-2">
          <mxGeometry relative="1" as="geometry">
            <Array as="points">
              <mxPoint x="620" y="150" />
              <mxPoint x="680" y="150" />
              <mxPoint x="680" y="260" />
            </Array>
            <mxPoint x="460" y="150" as="sourcePoint" />
          </mxGeometry>
        </mxCell>
        <mxCell id="CH0poKbmw3DAZW8Dyjto-6" style="edgeStyle=orthogonalEdgeStyle;rounded=0;orthogonalLoop=1;jettySize=auto;html=1;entryX=0;entryY=0.3333333333333333;entryDx=0;entryDy=0;entryPerimeter=0;dashed=1;startArrow=none;exitX=0.992;exitY=0.513;exitDx=0;exitDy=0;exitPerimeter=0;" edge="1" parent="1" target="CH0poKbmw3DAZW8Dyjto-3" source="CH0poKbmw3DAZW8Dyjto-2">
          <mxGeometry relative="1" as="geometry">
            <Array as="points">
              <mxPoint x="619" y="150" />
              <mxPoint x="680" y="150" />
              <mxPoint x="680" y="50" />
            </Array>
            <mxPoint x="460" y="150" as="sourcePoint" />
          </mxGeometry>
        </mxCell>
        <mxCell id="CH0poKbmw3DAZW8Dyjto-7" value="&lt;div&gt;OnlinePlayer&lt;/div&gt;&lt;div&gt;&lt;br&gt;&lt;/div&gt;" style="shape=umlActor;verticalLabelPosition=bottom;verticalAlign=top;html=1;outlineConnect=0;" vertex="1" parent="1">
          <mxGeometry x="750" y="130" width="30" height="60" as="geometry" />
        </mxCell>
        <mxCell id="CH0poKbmw3DAZW8Dyjto-8" value="&lt;div&gt;OnlinePlayer&lt;/div&gt;&lt;div&gt;&lt;br&gt;&lt;/div&gt;" style="shape=umlActor;verticalLabelPosition=bottom;verticalAlign=top;html=1;outlineConnect=0;" vertex="1" parent="1">
          <mxGeometry x="750" y="230" width="30" height="60" as="geometry" />
        </mxCell>
        <mxCell id="CH0poKbmw3DAZW8Dyjto-19" value="" style="edgeStyle=orthogonalEdgeStyle;rounded=0;orthogonalLoop=1;jettySize=auto;html=1;startArrow=none;" edge="1" parent="1" source="CH0poKbmw3DAZW8Dyjto-12" target="CH0poKbmw3DAZW8Dyjto-2">
          <mxGeometry relative="1" as="geometry" />
        </mxCell>
        <mxCell id="CH0poKbmw3DAZW8Dyjto-23" value="" style="edgeStyle=orthogonalEdgeStyle;rounded=0;orthogonalLoop=1;jettySize=auto;html=1;dashed=1;" edge="1" parent="1" source="CH0poKbmw3DAZW8Dyjto-17" target="CH0poKbmw3DAZW8Dyjto-12">
          <mxGeometry relative="1" as="geometry" />
        </mxCell>
        <mxCell id="CH0poKbmw3DAZW8Dyjto-17" value="&lt;div align=&quot;center&quot;&gt;&lt;br&gt;&lt;/div&gt;&lt;div align=&quot;center&quot;&gt;&lt;br&gt;&lt;/div&gt;&lt;div align=&quot;center&quot;&gt;photonView.IsMIne&lt;/div&gt;" style="rhombus;whiteSpace=wrap;html=1;verticalAlign=top;align=center;" vertex="1" parent="1">
          <mxGeometry x="125" y="110" width="145" height="80" as="geometry" />
        </mxCell>
        <mxCell id="CH0poKbmw3DAZW8Dyjto-22" style="edgeStyle=orthogonalEdgeStyle;rounded=0;orthogonalLoop=1;jettySize=auto;html=1;entryX=0;entryY=0.3333333333333333;entryDx=0;entryDy=0;entryPerimeter=0;dashed=1;" edge="1" parent="1" source="CH0poKbmw3DAZW8Dyjto-2" target="CH0poKbmw3DAZW8Dyjto-7">
          <mxGeometry relative="1" as="geometry" />
        </mxCell>
        <mxCell id="CH0poKbmw3DAZW8Dyjto-2" value="Server" style="shape=cube;whiteSpace=wrap;html=1;boundedLbl=1;backgroundOutline=1;darkOpacity=0.05;darkOpacity2=0.1;shadow=1;gradientColor=none;" vertex="1" parent="1">
          <mxGeometry x="510" y="110" width="120" height="80" as="geometry" />
        </mxCell>
        <mxCell id="CH0poKbmw3DAZW8Dyjto-12" value="RPC(..., photonView.Owner, ...)" style="rounded=0;whiteSpace=wrap;html=1;" vertex="1" parent="1">
          <mxGeometry x="310" y="140" width="170" height="20" as="geometry" />
        </mxCell>
        <mxCell id="CH0poKbmw3DAZW8Dyjto-24" value="false" style="text;html=1;align=center;verticalAlign=middle;resizable=0;points=[];autosize=1;strokeColor=none;fillColor=none;" vertex="1" parent="1">
          <mxGeometry x="260" y="120" width="50" height="30" as="geometry" />
        </mxCell>
        <mxCell id="CH0poKbmw3DAZW8Dyjto-25" value="&lt;div align=&quot;center&quot;&gt;if photonView.IsMine is false means &lt;br&gt;&lt;/div&gt;&lt;div align=&quot;center&quot;&gt;that the object wasn&#39;t created by me.&lt;/div&gt;&lt;div align=&quot;center&quot;&gt;So I need to request the actual value to the Owner&lt;br&gt;&lt;/div&gt;" style="ellipse;shape=cloud;whiteSpace=wrap;html=1;align=center;" vertex="1" parent="1">
          <mxGeometry x="125" y="-20" width="370" height="130" as="geometry" />
        </mxCell>
        <mxCell id="CH0poKbmw3DAZW8Dyjto-26" value="" style="edgeStyle=orthogonalEdgeStyle;rounded=0;orthogonalLoop=1;jettySize=auto;html=1;" edge="1" parent="1" source="CH0poKbmw3DAZW8Dyjto-27" target="CH0poKbmw3DAZW8Dyjto-35">
          <mxGeometry relative="1" as="geometry" />
        </mxCell>
        <mxCell id="CH0poKbmw3DAZW8Dyjto-27" value="&lt;div&gt;LocalPlayer&lt;/div&gt;&lt;div&gt;&lt;br&gt;&lt;/div&gt;" style="shape=umlActor;verticalLabelPosition=bottom;verticalAlign=top;html=1;outlineConnect=0;" vertex="1" parent="1">
          <mxGeometry x="40" y="450" width="30" height="60" as="geometry" />
        </mxCell>
        <mxCell id="CH0poKbmw3DAZW8Dyjto-28" value="&lt;div&gt;OnlinePlayer&lt;/div&gt;&lt;div&gt;&lt;br&gt;&lt;/div&gt;" style="shape=umlActor;verticalLabelPosition=bottom;verticalAlign=top;html=1;outlineConnect=0;" vertex="1" parent="1">
          <mxGeometry x="750" y="360" width="30" height="60" as="geometry" />
        </mxCell>
        <mxCell id="CH0poKbmw3DAZW8Dyjto-29" style="edgeStyle=orthogonalEdgeStyle;rounded=0;orthogonalLoop=1;jettySize=auto;html=1;dashed=1;exitX=0;exitY=0;exitDx=120;exitDy=50;exitPerimeter=0;" edge="1" parent="1" source="CH0poKbmw3DAZW8Dyjto-37" target="CH0poKbmw3DAZW8Dyjto-32">
          <mxGeometry relative="1" as="geometry">
            <Array as="points">
              <mxPoint x="620" y="480" />
              <mxPoint x="680" y="480" />
              <mxPoint x="680" y="590" />
            </Array>
            <mxPoint x="460" y="480" as="sourcePoint" />
          </mxGeometry>
        </mxCell>
        <mxCell id="CH0poKbmw3DAZW8Dyjto-30" style="edgeStyle=orthogonalEdgeStyle;rounded=0;orthogonalLoop=1;jettySize=auto;html=1;entryX=0;entryY=0.3333333333333333;entryDx=0;entryDy=0;entryPerimeter=0;dashed=1;startArrow=none;exitX=0.992;exitY=0.513;exitDx=0;exitDy=0;exitPerimeter=0;" edge="1" parent="1" source="CH0poKbmw3DAZW8Dyjto-37" target="CH0poKbmw3DAZW8Dyjto-28">
          <mxGeometry relative="1" as="geometry">
            <Array as="points">
              <mxPoint x="619" y="480" />
              <mxPoint x="680" y="480" />
              <mxPoint x="680" y="380" />
            </Array>
            <mxPoint x="460" y="480" as="sourcePoint" />
          </mxGeometry>
        </mxCell>
        <mxCell id="CH0poKbmw3DAZW8Dyjto-31" value="&lt;div&gt;OnlinePlayer&lt;/div&gt;&lt;div&gt;&lt;br&gt;&lt;/div&gt;" style="shape=umlActor;verticalLabelPosition=bottom;verticalAlign=top;html=1;outlineConnect=0;" vertex="1" parent="1">
          <mxGeometry x="750" y="460" width="30" height="60" as="geometry" />
        </mxCell>
        <mxCell id="CH0poKbmw3DAZW8Dyjto-32" value="&lt;div&gt;OnlinePlayer&lt;/div&gt;&lt;div&gt;&lt;br&gt;&lt;/div&gt;" style="shape=umlActor;verticalLabelPosition=bottom;verticalAlign=top;html=1;outlineConnect=0;" vertex="1" parent="1">
          <mxGeometry x="750" y="560" width="30" height="60" as="geometry" />
        </mxCell>
        <mxCell id="CH0poKbmw3DAZW8Dyjto-33" value="" style="edgeStyle=orthogonalEdgeStyle;rounded=0;orthogonalLoop=1;jettySize=auto;html=1;startArrow=none;" edge="1" parent="1" source="CH0poKbmw3DAZW8Dyjto-38" target="CH0poKbmw3DAZW8Dyjto-37">
          <mxGeometry relative="1" as="geometry" />
        </mxCell>
        <mxCell id="CH0poKbmw3DAZW8Dyjto-34" value="" style="edgeStyle=orthogonalEdgeStyle;rounded=0;orthogonalLoop=1;jettySize=auto;html=1;dashed=1;" edge="1" parent="1" source="CH0poKbmw3DAZW8Dyjto-35" target="CH0poKbmw3DAZW8Dyjto-38">
          <mxGeometry relative="1" as="geometry" />
        </mxCell>
        <mxCell id="CH0poKbmw3DAZW8Dyjto-35" value="&lt;div align=&quot;center&quot;&gt;&lt;br&gt;&lt;/div&gt;&lt;div align=&quot;center&quot;&gt;&lt;br&gt;&lt;/div&gt;&lt;div align=&quot;center&quot;&gt;photonView.IsMIne&lt;/div&gt;" style="rhombus;whiteSpace=wrap;html=1;verticalAlign=top;align=center;" vertex="1" parent="1">
          <mxGeometry x="125" y="440" width="145" height="80" as="geometry" />
        </mxCell>
        <mxCell id="CH0poKbmw3DAZW8Dyjto-36" style="edgeStyle=orthogonalEdgeStyle;rounded=0;orthogonalLoop=1;jettySize=auto;html=1;entryX=0;entryY=0.3333333333333333;entryDx=0;entryDy=0;entryPerimeter=0;dashed=1;" edge="1" parent="1" source="CH0poKbmw3DAZW8Dyjto-37" target="CH0poKbmw3DAZW8Dyjto-31">
          <mxGeometry relative="1" as="geometry" />
        </mxCell>
        <mxCell id="CH0poKbmw3DAZW8Dyjto-37" value="Server" style="shape=cube;whiteSpace=wrap;html=1;boundedLbl=1;backgroundOutline=1;darkOpacity=0.05;darkOpacity2=0.1;shadow=1;gradientColor=none;" vertex="1" parent="1">
          <mxGeometry x="510" y="440" width="120" height="80" as="geometry" />
        </mxCell>
        <mxCell id="CH0poKbmw3DAZW8Dyjto-38" value="RPC(..., RpcTarget.Others, ...)" style="rounded=0;whiteSpace=wrap;html=1;" vertex="1" parent="1">
          <mxGeometry x="310" y="470" width="170" height="20" as="geometry" />
        </mxCell>
        <mxCell id="CH0poKbmw3DAZW8Dyjto-39" value="true" style="text;html=1;align=center;verticalAlign=middle;resizable=0;points=[];autosize=1;strokeColor=none;fillColor=none;" vertex="1" parent="1">
          <mxGeometry x="265" y="450" width="40" height="30" as="geometry" />
        </mxCell>
        <mxCell id="CH0poKbmw3DAZW8Dyjto-40" value="&lt;div&gt;I tell the others what MY current value is. &lt;br&gt;&lt;/div&gt;&lt;div&gt;This kind of calls have to be reduced to the&lt;/div&gt;&lt;div&gt;minimum to save on bandwidth resources&lt;br&gt;&lt;/div&gt;" style="ellipse;shape=cloud;whiteSpace=wrap;html=1;align=center;" vertex="1" parent="1">
          <mxGeometry x="190" y="300" width="370" height="130" as="geometry" />
        </mxCell>
        <mxCell id="CH0poKbmw3DAZW8Dyjto-41" value="" style="edgeStyle=orthogonalEdgeStyle;rounded=0;orthogonalLoop=1;jettySize=auto;html=1;" edge="1" parent="1" source="CH0poKbmw3DAZW8Dyjto-42" target="CH0poKbmw3DAZW8Dyjto-50">
          <mxGeometry relative="1" as="geometry" />
        </mxCell>
        <mxCell id="CH0poKbmw3DAZW8Dyjto-42" value="&lt;div&gt;LocalPlayer&lt;/div&gt;&lt;div&gt;&lt;br&gt;&lt;/div&gt;" style="shape=umlActor;verticalLabelPosition=bottom;verticalAlign=top;html=1;outlineConnect=0;" vertex="1" parent="1">
          <mxGeometry x="40" y="760" width="30" height="60" as="geometry" />
        </mxCell>
        <mxCell id="CH0poKbmw3DAZW8Dyjto-43" value="&lt;div&gt;OnlinePlayer&lt;/div&gt;&lt;div&gt;&lt;br&gt;&lt;/div&gt;" style="shape=umlActor;verticalLabelPosition=bottom;verticalAlign=top;html=1;outlineConnect=0;" vertex="1" parent="1">
          <mxGeometry x="750" y="670" width="30" height="60" as="geometry" />
        </mxCell>
        <mxCell id="CH0poKbmw3DAZW8Dyjto-44" style="edgeStyle=orthogonalEdgeStyle;rounded=0;orthogonalLoop=1;jettySize=auto;html=1;dashed=1;exitX=0;exitY=0;exitDx=120;exitDy=50;exitPerimeter=0;" edge="1" parent="1" source="CH0poKbmw3DAZW8Dyjto-52" target="CH0poKbmw3DAZW8Dyjto-47">
          <mxGeometry relative="1" as="geometry">
            <Array as="points">
              <mxPoint x="620" y="790" />
              <mxPoint x="680" y="790" />
              <mxPoint x="680" y="900" />
            </Array>
            <mxPoint x="460" y="790" as="sourcePoint" />
          </mxGeometry>
        </mxCell>
        <mxCell id="CH0poKbmw3DAZW8Dyjto-45" style="edgeStyle=orthogonalEdgeStyle;rounded=0;orthogonalLoop=1;jettySize=auto;html=1;entryX=0;entryY=0.3333333333333333;entryDx=0;entryDy=0;entryPerimeter=0;dashed=1;startArrow=none;exitX=0.992;exitY=0.513;exitDx=0;exitDy=0;exitPerimeter=0;" edge="1" parent="1" source="CH0poKbmw3DAZW8Dyjto-52" target="CH0poKbmw3DAZW8Dyjto-43">
          <mxGeometry relative="1" as="geometry">
            <Array as="points">
              <mxPoint x="619" y="790" />
              <mxPoint x="680" y="790" />
              <mxPoint x="680" y="690" />
            </Array>
            <mxPoint x="460" y="790" as="sourcePoint" />
          </mxGeometry>
        </mxCell>
        <mxCell id="CH0poKbmw3DAZW8Dyjto-46" value="&lt;div&gt;OnlinePlayer&lt;/div&gt;&lt;div&gt;&lt;br&gt;&lt;/div&gt;" style="shape=umlActor;verticalLabelPosition=bottom;verticalAlign=top;html=1;outlineConnect=0;" vertex="1" parent="1">
          <mxGeometry x="750" y="770" width="30" height="60" as="geometry" />
        </mxCell>
        <mxCell id="CH0poKbmw3DAZW8Dyjto-47" value="&lt;div&gt;OnlinePlayer&lt;/div&gt;&lt;div&gt;&lt;br&gt;&lt;/div&gt;" style="shape=umlActor;verticalLabelPosition=bottom;verticalAlign=top;html=1;outlineConnect=0;" vertex="1" parent="1">
          <mxGeometry x="750" y="870" width="30" height="60" as="geometry" />
        </mxCell>
        <mxCell id="CH0poKbmw3DAZW8Dyjto-48" value="" style="edgeStyle=orthogonalEdgeStyle;rounded=0;orthogonalLoop=1;jettySize=auto;html=1;startArrow=none;" edge="1" parent="1" source="CH0poKbmw3DAZW8Dyjto-53" target="CH0poKbmw3DAZW8Dyjto-52">
          <mxGeometry relative="1" as="geometry" />
        </mxCell>
        <mxCell id="CH0poKbmw3DAZW8Dyjto-49" value="" style="edgeStyle=orthogonalEdgeStyle;rounded=0;orthogonalLoop=1;jettySize=auto;html=1;dashed=1;" edge="1" parent="1" source="CH0poKbmw3DAZW8Dyjto-50" target="CH0poKbmw3DAZW8Dyjto-53">
          <mxGeometry relative="1" as="geometry" />
        </mxCell>
        <mxCell id="CH0poKbmw3DAZW8Dyjto-50" value="&lt;div align=&quot;center&quot;&gt;&lt;br&gt;&lt;/div&gt;&lt;div align=&quot;center&quot;&gt;&lt;br&gt;&lt;/div&gt;&lt;div align=&quot;center&quot;&gt;photonView.IsMIne&lt;/div&gt;" style="rhombus;whiteSpace=wrap;html=1;verticalAlign=top;align=center;" vertex="1" parent="1">
          <mxGeometry x="125" y="750" width="145" height="80" as="geometry" />
        </mxCell>
        <mxCell id="CH0poKbmw3DAZW8Dyjto-51" style="edgeStyle=orthogonalEdgeStyle;rounded=0;orthogonalLoop=1;jettySize=auto;html=1;entryX=0;entryY=0.3333333333333333;entryDx=0;entryDy=0;entryPerimeter=0;dashed=1;" edge="1" parent="1" source="CH0poKbmw3DAZW8Dyjto-52" target="CH0poKbmw3DAZW8Dyjto-46">
          <mxGeometry relative="1" as="geometry" />
        </mxCell>
        <mxCell id="CH0poKbmw3DAZW8Dyjto-56" style="edgeStyle=orthogonalEdgeStyle;rounded=0;orthogonalLoop=1;jettySize=auto;html=1;entryX=0.5;entryY=0;entryDx=0;entryDy=0;entryPerimeter=0;dashed=1;" edge="1" parent="1" source="CH0poKbmw3DAZW8Dyjto-52" target="CH0poKbmw3DAZW8Dyjto-42">
          <mxGeometry relative="1" as="geometry">
            <Array as="points">
              <mxPoint x="570" y="740" />
              <mxPoint x="55" y="740" />
            </Array>
          </mxGeometry>
        </mxCell>
        <mxCell id="CH0poKbmw3DAZW8Dyjto-52" value="Server" style="shape=cube;whiteSpace=wrap;html=1;boundedLbl=1;backgroundOutline=1;darkOpacity=0.05;darkOpacity2=0.1;shadow=1;gradientColor=none;" vertex="1" parent="1">
          <mxGeometry x="510" y="750" width="120" height="80" as="geometry" />
        </mxCell>
        <mxCell id="CH0poKbmw3DAZW8Dyjto-53" value="RPC(..., RpcTarget.All, ...)" style="rounded=0;whiteSpace=wrap;html=1;" vertex="1" parent="1">
          <mxGeometry x="310" y="780" width="170" height="20" as="geometry" />
        </mxCell>
        <mxCell id="CH0poKbmw3DAZW8Dyjto-54" value="true" style="text;html=1;align=center;verticalAlign=middle;resizable=0;points=[];autosize=1;strokeColor=none;fillColor=none;" vertex="1" parent="1">
          <mxGeometry x="265" y="760" width="40" height="30" as="geometry" />
        </mxCell>
        <mxCell id="CH0poKbmw3DAZW8Dyjto-57" value="&lt;div&gt;I tell the others AND myself included what &lt;br&gt;&lt;/div&gt;&lt;div&gt;MY current value is.&lt;br&gt;&lt;/div&gt;" style="ellipse;shape=cloud;whiteSpace=wrap;html=1;align=center;" vertex="1" parent="1">
          <mxGeometry x="190" y="580" width="370" height="130" as="geometry" />
        </mxCell>
      </root>
    </mxGraphModel>
  </diagram>
</mxfile>
